Coordinates
version=1
nRows=17
nColumns=38
inDegrees=no

Units are S.I. units (second, meters, Newtons, ...)
If the header above contains a line with 'inDegrees', this indicates whether rotational values are in degrees (yes) or radians (no).

endheader
time	pelvis_tilt	pelvis_list	pelvis_rotation	pelvis_tx	pelvis_ty	pelvis_tz	hip_flexion_r	hip_adduction_r	hip_rotation_r	knee_angle_r	ankle_angle_r	subtalar_angle_r	mtp_angle_r	hip_flexion_l	hip_adduction_l	hip_rotation_l	knee_angle_l	ankle_angle_l	subtalar_angle_l	mtp_angle_l	lumbar_extension	lumbar_bending	lumbar_rotation	arm_flex_r	arm_add_r	arm_rot_r	elbow_flex_r	pro_sup_r	wrist_flex_r	wrist_dev_r	arm_flex_l	arm_add_l	arm_rot_l	elbow_flex_l	pro_sup_l	wrist_flex_l	wrist_dev_l
4.62	-0.98743	1.51112	-0.807806	0.808644	-0.393455	0.925151	0.123639	-0.105938	-0.172245	0.192947	0.00948352	0	0	-0.20458	-0.218562	-0.220404	0.0824384	0.0900705	0	0	-0.170274	0.084751	-0.127913	-0.196696	-0.277666	0.227236	0.665026	1.45773	0	0	0.207837	-0.260297	-1.5708	0	0	0	0
4.63	-0.794101	1.52415	-0.998512	0.80097	-0.394215	0.925471	0.13035	-0.114311	-0.164326	0.205091	0.0168567	0	0	-0.196695	-0.210791	-0.22728	0.087543	0.0808775	0	0	-0.167243	0.0625853	-0.120351	-0.192124	-0.271204	0.235932	0.655908	1.45762	0	0	0.203584	-0.283252	-1.5708	0	0	0	0
4.64	-0.996333	1.51596	-0.775955	0.797602	-0.395297	0.925359	0.124159	-0.0961984	-0.181186	0.205503	0.0192303	0	0	-0.179697	-0.237577	-0.217363	0.112516	0.0876732	0	0	-0.173191	0.0886664	-0.111358	-0.203849	-0.276359	0.215748	0.677568	1.46078	0	0	0.208985	-0.2757	-1.5708	0	0	0	0
4.65	-1.01499	1.51957	-0.746642	0.794219	-0.397273	0.925744	0.124365	-0.0961731	-0.195506	0.209292	0.0261693	0	0	-0.16171	-0.24388	-0.212643	0.139392	0.0865583	0	0	-0.169747	0.0925098	-0.108823	-0.200361	-0.279047	0.220653	0.676613	1.46589	0	0	0.198309	-0.254407	-1.5708	0	0	0	0
4.66	-1.15729	1.51657	-0.593458	0.789671	-0.399211	0.925223	0.12315	-0.0830863	-0.204895	0.209881	0.031913	0	0	-0.130837	-0.264236	-0.197424	0.192976	0.103817	0	0	-0.163986	0.102078	-0.105433	-0.200332	-0.283118	0.230381	0.678848	1.46907	0	0	0.189804	-0.250457	-1.5708	0	0	0	0
4.67	-1.28545	1.52238	-0.449352	0.786288	-0.399926	0.924628	0.130539	-0.0829228	-0.21748	0.215492	0.0385207	0	0	-0.0978297	-0.273083	-0.185859	0.229357	0.110084	0	0	-0.156182	0.103743	-0.108903	-0.19585	-0.286749	0.241178	0.680273	1.46975	0	0	0.184609	-0.24773	-1.5708	0	0	0	0
4.68	-1.34513	1.52386	-0.375675	0.781131	-0.400236	0.924597	0.130601	-0.0764533	-0.220724	0.217673	0.0423857	0	0	-0.0739457	-0.285003	-0.183597	0.258011	0.111573	0	0	-0.154755	0.101778	-0.109829	-0.191268	-0.286185	0.249711	0.68135	1.46869	0	0	0.183777	-0.264942	-1.5708	0	0	0	0
4.69	-1.40141	1.52563	-0.308281	0.777121	-0.401038	0.924829	0.130018	-0.0728022	-0.226528	0.21777	0.0468131	0	0	-0.0508616	-0.29316	-0.181084	0.288422	0.110039	0	0	-0.152984	0.102906	-0.108219	-0.186506	-0.28792	0.258461	0.682333	1.4679	0	0	0.179398	-0.262259	-1.5708	0	0	0	0
4.7	-1.44554	1.528	-0.254653	0.774432	-0.402551	0.925326	0.127964	-0.0728006	-0.238973	0.216154	0.0524091	0	0	-0.0293434	-0.297205	-0.177836	0.319833	0.105904	0	0	-0.150525	0.106696	-0.105865	-0.182161	-0.291489	0.265884	0.684316	1.46661	0	0	0.170499	-0.239605	-1.5708	0	0	0	0
4.71	-1.49686	1.52862	-0.19077	0.769541	-0.402829	0.92535	0.126352	-0.0659733	-0.240101	0.215761	0.0550781	0	0	-0.00555916	-0.307494	-0.177532	0.349719	0.103656	0	0	-0.150178	0.10481	-0.105224	-0.178948	-0.291633	0.27217	0.689751	1.46457	0	0	0.170652	-0.255978	-1.5708	0	0	0	0
4.72	-1.56702	1.52981	-0.11289	0.767237	-0.404474	0.925742	0.124017	-0.064729	-0.251183	0.211875	0.0598292	0	0	0.0158854	-0.311346	-0.178219	0.381396	0.0991215	0	0	-0.142119	0.103319	-0.113642	-0.161894	-0.297215	0.306527	0.679734	1.45442	0	0	0.153293	-0.234271	-1.5708	0	0	0	0
4.73	-1.54631	1.53145	-0.124106	0.763499	-0.405216	0.926224	0.118503	-0.0615482	-0.256493	0.208609	0.0630169	0	0	0.0341537	-0.316045	-0.17822	0.409971	0.093415	0	0	-0.148937	0.109503	-0.098898	-0.172938	-0.29896	0.2846	0.705332	1.4476	0	0	0.158733	-0.228432	-1.5708	0	0	0	0
4.74	-1.55448	1.5315	-0.105255	0.75885	-0.405469	0.926347	0.114415	-0.0542378	-0.254735	0.205708	0.0634248	0	0	0.0545469	-0.324155	-0.178778	0.43801	0.088322	0	0	-0.151094	0.107698	-0.0955619	-0.172746	-0.299067	0.281572	0.718427	1.44401	0	0	0.160606	-0.244272	-1.5708	0	0	0	0
4.75	-1.54851	1.53326	-0.103354	0.756769	-0.406997	0.926936	0.10855	-0.0540336	-0.267014	0.200317	0.0660648	0	0	0.071425	-0.325332	-0.183678	0.466623	0.0838274	0	0	-0.151161	0.111182	-0.0917957	-0.171837	-0.302418	0.280612	0.729201	1.44109	0	0	0.153704	-0.219645	-1.5708	0	0	0	0
4.76	-1.55555	1.53512	-0.088306	0.753588	-0.407698	0.927263	0.104965	-0.0515499	-0.272405	0.196877	0.0665593	0	0	0.0891008	-0.327495	-0.186945	0.493307	0.0809751	0	0	-0.152321	0.110903	-0.0873824	-0.170376	-0.304786	0.280716	0.740983	1.43818	0	0	0.151919	-0.214748	-1.5708	0	0	0	0
4.77	-1.52968	1.53743	-0.107	0.750482	-0.408376	0.927694	0.100688	-0.0497842	-0.276144	0.193898	0.0671059	0	0	0.10407	-0.328079	-0.191331	0.518122	0.0811594	0	0	-0.15474	0.109848	-0.0822552	-0.168854	-0.307158	0.28094	0.752991	1.43643	0	0	0.150735	-0.209876	-1.5708	0	0	0	0
4.78	-1.46805	1.53999	-0.161277	0.747518	-0.409165	0.928227	0.095306	-0.0487252	-0.28013	0.191018	0.0677564	0	0	0.116801	-0.32748	-0.197002	0.541199	0.0839477	0	0	-0.157867	0.108236	-0.0773389	-0.167587	-0.309249	0.281288	0.764228	1.43796	0	0	0.149644	-0.204876	-1.5708	0	0	0	0
